<svg id="Layer_1" data-name="Layer 1" xmlns="http://www.w3.org/2000/svg" viewBox="0 0 500 76.22"><defs><style>.cls-1{fill:#fff;fill-rule:evenodd;}</style></defs><path id="path2" class="cls-1" d="M38.09,66.69a28.56,28.56,0,0,1-15-52.89l.33.55a27.92,27.92,0,1,0,29-.15l.34-.55a28.57,28.57,0,0,1-14.73,53Z"/><path id="path4" class="cls-1" d="M37.64.68c-.92,0-1.83.06-2.74.14.2.77.4,1.55.61,2.33l-.36,0a5,5,0,0,0-3.77-1.9c-.81.15-1.61.32-2.4.52V6.21c.39-.11.59-.15,1-.25,1.42-.31,3-1,3.4-2.51l.34,0V7.79l-.27,0a1.93,1.93,0,0,0-1.85-1.34,9.54,9.54,0,0,0-2.6.36V9.16A8.45,8.45,0,0,0,29.12,11c.12.54.46,1.09,1.09.94v.27a41.08,41.08,0,0,0-5.33,1.65v-.27c1.28-.54,1.28-2.6,1.27-3.74V4.27a2,2,0,0,0-.41-1.49,37.44,37.44,0,1,0,24.66,0,.62.62,0,0,0-.24.27A3.06,3.06,0,0,0,50,4.15V9.93a12,12,0,0,0,.12,2,2.06,2.06,0,0,0,1.11,1.68v.33a40,40,0,0,0-5.43-1.66v-.33c.66.12,1.09-.42,1.18-1a12.08,12.08,0,0,0,.11-2q0-3.09,0-6.18h-.07Q45,7.39,42.94,12.07l-.22,0Q40.8,6.91,38.79,1.82c0,1.82,0,3.64,0,5.46a9,9,0,0,0,.33,2.25,2.38,2.38,0,0,0,1.4,1.68v.29a41,41,0,0,0-4.15,0v-.27a2.72,2.72,0,0,0,1.42-1.8A9.41,9.41,0,0,0,38.18,7V2.79A3.5,3.5,0,0,0,37.64.68ZM48,2l-.08,0-.35.53V9.42a5.91,5.91,0,0,1-.48,2.49l-.37.29c.58.16,1-.41,1.08-.89A6.9,6.9,0,0,0,48,9.55V4.1c0-.69,0-1.39,0-2.08Zm-1.15-.3a38.74,38.74,0,0,0-5.52-.9c1,2.25,1.92,4.5,2.86,6.77Q45.52,4.65,46.86,1.72ZM39.3.7h-.7l.09.09a2.8,2.8,0,0,1,.52.79q1.84,4.88,3.63,9.75l.25-.54Q41.23,5.73,39.3.7ZM37,.06V0A39.63,39.63,0,0,1,41,.12l0,0a38.09,38.09,0,1,1-9.26.41Q33.24.3,34.73.15v0C35.47.13,36.21.08,37,.06ZM26.54,2.51l-.44.14c.37.32.39,1.1.41,1.52V10a8.23,8.23,0,0,1-.16,1.79,2.91,2.91,0,0,1-1,1.63C26.73,12.86,27,11.19,27,9.84V3.92a2.15,2.15,0,0,0-.26-1.26.65.65,0,0,0-.18-.15Z"/><path id="path6" class="cls-1" d="M16.2,21.5s.78,2.37.85,2.74h0c.07.35.47.23.47.23h0S33,23,35.5,22.82h0A2.92,2.92,0,0,1,38,23.94h0c.58,0,21-2.34,21.35-2.39h0c.44-.07,1.13-.24.85-.37h0a9.25,9.25,0,0,0-2.29-.27h0c-1.51-.28-39.21-.33-40.83-.33h0c-1.18,0-.9.92-.9.92Zm2.5,4.29c-.35,0-.93.17-.74.29h0a5.21,5.21,0,0,0,1.71.35h0c1.09.3,31.41,1.89,35.43,2.12h0c1.39.22,1.6-.87,1.6-.87h0L58,24.62h0c.14-.4-.39-.23-.39-.23h0s-16.38,1.07-18.7,1.1h0c-1.74,0-1.51-1.12-1.78-1.32h0c-.63,0-18.4,1.62-18.4,1.62ZM53.22,29c-1.35-.1-31.88,2.76-31.88,2.76h0c-.92,0-1,.37-.95.67h0a11.91,11.91,0,0,0,.84,1.89h0c.25.38.35.4.67.35h0c.37,0,12.53-2.39,14.48-2.66h0a2.11,2.11,0,0,1,2,.69h0c.58-.07,16.33-3.28,16.33-3.28h0c.4-.1,1-.3.68-.37h0a2.4,2.4,0,0,0-.77-.08h0c-.32,0-.74,0-1.39,0ZM23,35.09c-.26,0-.7.13-.58.28h0a3.26,3.26,0,0,0,1.25.37h0c.81.37,27.72,3.44,27.72,3.44h0a1,1,0,0,0,1.25-.85h0s.84-2.66.95-3.11h0c.12-.4-.28-.25-.28-.25h0s-13.26.6-14.93.55h0a2.25,2.25,0,0,1-1.81-1.27h0C35.8,34.25,23,35.09,23,35.09ZM38.07,38.4c-.19.15-.37,1.17-1.44,1.22h0c-1.39.05-12.64-.74-12.64-.74h0s-.51.12-.37.45h0l1,2.61h0a.9.9,0,0,0,1.12.67h0S48.65,40.25,49.37,40h0c.65-.13.86-.15,1.06-.3h0c.14-.1-.23-.2-.44-.23h0s-11.34-1-11.92-1Zm-8.19,4.16a2.68,2.68,0,0,0-.95.1h0c-.12.07.14.22.33.27h0s8.35,2.57,8.67,2.62h0c.16-.1.4-.82,1.18-.7h0c1.07.2,8.7,2.29,8.7,2.29h0s.19.12.21-.12h0l.54-2.27h0s.23-.75-.47-.7h0S31.83,42.56,30,42.56h-.16Zm-3.55,3.56c0,.27.65,2.22.65,2.22h0s.21.72.81.59h0s16.54-1.07,17.05-1.27h0c.49-.1.65-.1.77-.2h0c.09-.1-.21-.2-.37-.24h0s-10-.8-10.25-.8h0c-.12.1-.1.82-.79.8h0c-1-.08-7.68-1.22-7.68-1.22h0a.22.22,0,0,0-.09,0h0C26.38,46,26.33,46,26.33,46.12Zm2.3,3.81c-.49,0-.65,0-.79,0h0c-.09.07.16.2.32.25h0s8.15,2.16,8.31,2.19h0a1.38,1.38,0,0,1,1.6-.63h0c1,.18,7.49,1.7,7.49,1.7h0s.12.1.24-.08h0c.11-.2.44-2.11.44-2.11h0s.09-.55-.56-.53h0s-14.89-.87-16.87-.87h0c-.09,0-.16,0-.18,0Zm8.72,2.76c-.09.2-.21,1.67-1.09,1.62h0c-.7,0-5.64-.4-5.64-.4h0s-.14,0-.16.17h0a17,17,0,0,0,.91,2.17h0a1,1,0,0,0,1.32.77h0s10.51-2.61,10.79-2.89h0a.69.69,0,0,0,.46-.42h0c0-.1-.21-.17-.35-.17h0s-6.12-.85-6.24-.85Zm5,4.41s-8.37.72-8.6.87h0a.62.62,0,0,0-.35.22h0c0,.08.09.18.16.23h0l4.69,1h0c.09-.17.88-.9,1.53-.7h0c.51.13,3,.48,3.13.48h0c.18,0,.28,0,.32-.25h0c.07-.25.19-.87.19-.87h0a1.07,1.07,0,0,0-1-1h-.12Zm-6.15,2.61-.39.95h0c-.21.69,0,1.44.28,1.41h0s5.29,1,5.47.93h0a.31.31,0,0,0,.28-.2h0a.31.31,0,0,0,0-.28h0l-2.44-2.24h0c-.14.18-.83.82-1.16.45h0a18.21,18.21,0,0,0-1.74-1.24h0s0,0-.07,0h0c-.07,0-.11.08-.21.25Z"/><path id="path10" class="cls-1" d="M7.14,52.15,10,50.81a1.08,1.08,0,0,0,.56-.5,1.37,1.37,0,0,0-.09-1,1,1,0,0,1-.68,1.15L7,51.76a2.19,2.19,0,0,1-.91.25,1.31,1.31,0,0,1-1-.67A1.41,1.41,0,0,0,7.14,52.15Zm5.8,4.67-.16-.22A6,6,0,0,0,12,52.92c-.23-.41-.34-.62-.56-1.05L9.35,53c.15.29.22.43.38.72.45.76,1.17,2,2.24,1.79l.15.22-1.94,1.35-.12-.19A2,2,0,0,0,10,55.11c-.26-.67-.62-1.31-.94-2L8,53.73a3,3,0,0,0-.81.58A1,1,0,0,0,7,55.5l-.12.07A44.22,44.22,0,0,1,4.77,51l.14-.06c.34.93,1.34.79,2.07.45l2.72-1.2a1,1,0,0,0,.68-1.09l.14-.06a34.2,34.2,0,0,0,3.41,6.33c-.34.48-.67,1-1,1.45Z"/><path id="path12" class="cls-1" d="M12.64,60.61l2.45-2.21a.71.71,0,0,0,.26-.56,1.17,1.17,0,0,0-.28-.71.85.85,0,0,1,.12.62.9.9,0,0,1-.3.41l-2.48,2.18a3.65,3.65,0,0,1-.8.59.88.88,0,0,1-1.07-.21,1.12,1.12,0,0,0,1.2.47,2.59,2.59,0,0,0,.9-.58Zm.41,3.16a40.28,40.28,0,0,1-3-3.4l.14-.11a.93.93,0,0,0,1.13.38,3.34,3.34,0,0,0,.84-.59l2.51-2.16a.81.81,0,0,0,.3-.4,1,1,0,0,0-.11-.62l.11-.09c.69.84,1.4,1.65,2.16,2.43l-.1.11a.7.7,0,0,0-1,.1l-2.43,2.39a3.91,3.91,0,0,0-.64.74.87.87,0,0,0,.19,1.09l-.13.13Z"/><path id="path14" class="cls-1" d="M20.08,68.9a1.75,1.75,0,0,1-.11-1,6.76,6.76,0,0,0,0-1.35,3,3,0,0,0-.64-1.52,3.6,3.6,0,0,1,.37,1.8c0,.58-.11,1.15-.18,1.73l.53.31Zm1.76-4.16a1.13,1.13,0,0,0-.08-1.14,3,3,0,0,0-.92-1l-.1-.07a2.71,2.71,0,0,1,.85,1,1.07,1.07,0,0,1,0,1.07,1.12,1.12,0,0,1-.89.52,1.73,1.73,0,0,1-1.21-.35l.36.26a1.77,1.77,0,0,0,1,.2,1.09,1.09,0,0,0,1-.46Zm-.59-.32c.55-.87-.39-1.72-1-2.19l-.49-.37-1.46,1.92.52.4a3.61,3.61,0,0,0,1.37.65,1,1,0,0,0,1.09-.41ZM16.05,64l2-2.4a1.11,1.11,0,0,0,.29-.7,1,1,0,0,0-.35-.79.79.79,0,0,1,.17.72,1.48,1.48,0,0,1-.34.57l-2,2.38c-.44.54-1.25,1.18-1.89.53A1.37,1.37,0,0,0,16.05,64Zm6.05,6.2c-1-.51-2-1.06-3-1.65.06-.55.14-1.1.22-1.65a2.49,2.49,0,0,0-.75-2.52l-.53-.4-.8,1a3.12,3.12,0,0,0-.53.88A.9.9,0,0,0,17.12,67l-.09.13a37.81,37.81,0,0,1-3.5-2.94l.1-.12c.64.62,1.44,0,1.89-.53l2.06-2.35a1,1,0,0,0,.19-1.28l.1-.11a33,33,0,0,0,3.71,3A6.53,6.53,0,0,1,23,64a1.37,1.37,0,0,1,.24,1.5,1.28,1.28,0,0,1-1.46.51,5.58,5.58,0,0,1-1.85-.82,6.4,6.4,0,0,1,1.17,1.27,2.89,2.89,0,0,1,.31,1.46,4.45,4.45,0,0,0,.14,1.46,1.7,1.7,0,0,0,.62.74Z"/><path id="path16" class="cls-1" d="M25.41,69.76c.38-1,.76-1.92,1.15-2.88a1.56,1.56,0,0,0,.14-.74c-.05-.26-.26-.46-.62-.63a.66.66,0,0,1,.35.61,2,2,0,0,1-.17.64c-.39.95-.79,1.91-1.18,2.87a2.75,2.75,0,0,1-.48.87,1.12,1.12,0,0,1-1.14.23A1.38,1.38,0,0,0,25.41,69.76Zm7,1.64c-.43.65-.87,1.29-1.32,1.91a38.49,38.49,0,0,1-8-2.59l.06-.13a.9.9,0,0,0,1.13-.18,3.62,3.62,0,0,0,.5-.91L26,66.64a1.64,1.64,0,0,0,.17-.64.74.74,0,0,0-.36-.61l.06-.14a32.59,32.59,0,0,0,6.07,2c0,.58.11,1.16.19,1.73l-.25,0a5.32,5.32,0,0,0-2.66-2l-1-.34c-.27.75-.53,1.51-.79,2.27L28,69c.83.23,2,.51,2.63-.32l.2,0-.54,2.31-.19,0a1.74,1.74,0,0,0-1.09-1.21,18.51,18.51,0,0,0-1.8-.68l-.45,1.32a1.27,1.27,0,0,0-.06,1,1.89,1.89,0,0,0,1.14.71,4.59,4.59,0,0,0,2.41,0,7.3,7.3,0,0,0,2-.85l.19.08Z"/><path id="path18" class="cls-1" d="M45.71,71.47c-.22-1-.43-1.91-.64-2.87l-.27-1.18-.2.48c.26,1.21.52,2.43.77,3.64A2.63,2.63,0,0,1,45.29,73l-.25.26a.87.87,0,0,0,.71-.79,2.51,2.51,0,0,0,0-1Zm-3.57,1.84A45.38,45.38,0,0,1,39,68h-.76a1.18,1.18,0,0,1,.48.3,1.5,1.5,0,0,1,.35.41,46.36,46.36,0,0,0,3,4.93l.15-.33Zm6.51-.76a39.22,39.22,0,0,1-4.29,1l0-.17a.89.89,0,0,0,.79-.87A4.9,4.9,0,0,0,45,71.41c-.21-1.09-.43-2.18-.65-3.28h0A45.72,45.72,0,0,1,42.11,74l-.17,0a46,46,0,0,1-3.19-5.19c0,1,0,2,0,3A2.87,2.87,0,0,0,39.06,73a1.46,1.46,0,0,0,1.12.83V74q-1.62.08-3.24,0V73.9a1.6,1.6,0,0,0,1.1-.94,2.93,2.93,0,0,0,.3-1.27v-2.3a1.32,1.32,0,0,0-.8-1.4v-.12c.88,0,1.76,0,2.65-.05a43.2,43.2,0,0,0,2.57,3.58,41.87,41.87,0,0,0,1.39-4.09c.87-.18,1.72-.39,2.57-.63l.05.12a.82.82,0,0,0-.48.52,1.47,1.47,0,0,0,.08.63l.81,3a4.38,4.38,0,0,0,.36,1,.87.87,0,0,0,1.06.41Z"/><path id="path20" class="cls-1" d="M50.62,69.92,49.51,67a1.56,1.56,0,0,0-.4-.64,1,1,0,0,0-.88,0,.68.68,0,0,1,.67.21,1.81,1.81,0,0,1,.31.59L50.29,70a2.84,2.84,0,0,1,.24,1,1.15,1.15,0,0,1-.68.94A1.38,1.38,0,0,0,50.62,69.92ZM57,66.29c.13.77.23,1.54.32,2.32a37.81,37.81,0,0,1-7.71,3.59l0-.14a.9.9,0,0,0,.71-.9,3.61,3.61,0,0,0-.25-1c-.35-1-.7-2-1.06-2.92a1.59,1.59,0,0,0-.31-.58.74.74,0,0,0-.67-.22l0-.14a32.76,32.76,0,0,0,5.83-2.69c.43.38.87.76,1.32,1.13l-.22.14a5.37,5.37,0,0,0-3.38.33l-1,.46,1,2.2.65-.29c.76-.4,1.83-1,1.73-2l.19-.1,1.16,2.06-.17.1a1.74,1.74,0,0,0-1.63-.14,17.64,17.64,0,0,0-1.79.73c.18.43.36.85.55,1.28s.4.69.64.77A1.86,1.86,0,0,0,54.06,70a4.84,4.84,0,0,0,1.81-1.63,6.77,6.77,0,0,0,.89-2l.2-.07Z"/><path id="path22" class="cls-1" d="M64.22,62a1.9,1.9,0,0,0-1-.29,36.92,36.92,0,0,1-4-.83c0,.12,0,.17.06.29,1.23.33,2.47.6,3.73.81a2.1,2.1,0,0,1,1,.31.36.36,0,0,1,.1.38,4.59,4.59,0,0,1-.26.48,2.76,2.76,0,0,0,.49-.62A.41.41,0,0,0,64.22,62Zm-2.93,0q-1-.24-1.95-.54c.1.69.2,1.38.28,2.07C60.19,63,60.75,62.5,61.29,62Zm5.43-2a38.87,38.87,0,0,1-3.07,3.58l-.11-.1a1.89,1.89,0,0,0,.3-.51.4.4,0,0,0-.14-.38,2,2,0,0,0-1-.33l-1-.14q-1,.95-2,1.83c0,.3.06.62.09.92a1.64,1.64,0,0,0,.27.87c.3.3.87.08,1.24-.14l.09.11c-.86.72-1.73,1.39-2.65,2l-.07-.11a3.21,3.21,0,0,0,.68-2.34A40.1,40.1,0,0,0,58.76,60c0-.26,0-.4,0-.44a.28.28,0,0,1,.25,0l.24.07a35,35,0,0,0,5.59.72,4.1,4.1,0,0,0,.86,0,1.92,1.92,0,0,0,.9-.45l.14.11Z"/><path id="path24" class="cls-1" d="M67.46,55.59l-2.83-1.74a.49.49,0,0,0-.53,0,1.6,1.6,0,0,0-.48.49.53.53,0,0,1,.83-.21l2.81,1.77a2.26,2.26,0,0,1,.75.72A1.19,1.19,0,0,1,68,57.91,1.52,1.52,0,0,0,67.46,55.59Zm.16-6.21-.12.3a8,8,0,0,0-1.25.78,3.37,3.37,0,0,0-1.07,1.12c-.21.4-.14.7.21.89l2.91,1.6a3.32,3.32,0,0,0,1,.38,1,1,0,0,0,1-.65v0l.13.07a41.4,41.4,0,0,1-2.56,4.48l-.11-.09h0c.55-.78,0-1.53-.71-2l-2.79-1.81a.55.55,0,0,0-.85.24,3.14,3.14,0,0,0-.4,1.44,7.59,7.59,0,0,0,0,1.43l-.15.19c-.31-.53-.64-1.05-1-1.57a33.19,33.19,0,0,0,3.85-6.79Q66.69,49.41,67.62,49.38Z"/><g id="Layer1000"><path id="path26" class="cls-1" d="M120.37,20.54h12.84l6.51,17.75,5.89-17.75h13v4.91h-4.13V44.27h4.13v4.91H145.7V44.27h3.12V24.53L146.87,31l-5.15,14.69h-4.14l-5.93-15.27-1.94-5.59-.05,19.4h3.21v4.91H120.32V44.27h4.14V25.45h-4.09Z"/><path id="path28" class="cls-1" d="M180.22,34.69h2.87V25.45h-2.87a8,8,0,0,0-4.74,1.19,4.12,4.12,0,0,0-1.63,3.53,3.92,3.92,0,0,0,1.63,3.33,8,8,0,0,0,4.74,1.19Zm-14,14.49V44.27h4.43l3.69-6.47a10.33,10.33,0,0,1-4.52-3,7.28,7.28,0,0,1-1.75-4.91A8.31,8.31,0,0,1,171.16,23q3.08-2.47,9-2.48h12.68v4.91h-4.08V44.27h4.08v4.91H180.42V44.27h2.72V39h-4l-5.1,10.21Z"/><path id="path30" class="cls-1" d="M220.19,25.16a4.79,4.79,0,0,0-.9-.29c-.5-.13-1.11-.26-1.82-.39a12.53,12.53,0,0,0-2.24-.2A8,8,0,0,0,208.71,27c-1.52,1.81-2.28,4.41-2.28,7.78s.78,6,2.33,7.87a8,8,0,0,0,6.47,2.77,8.5,8.5,0,0,0,2.29-.29c.71-.19,1.31-.38,1.79-.56l.88-.31,1-4.23,4.72,1.07L224.47,48A27,27,0,0,1,220,49.62a19.82,19.82,0,0,1-4.81.53,16.6,16.6,0,0,1-7.66-1.68,11.91,11.91,0,0,1-5.13-5.1,18,18,0,0,1-1.84-8.58,17.26,17.26,0,0,1,1.79-8.17,12.51,12.51,0,0,1,5.11-5.23,15.68,15.68,0,0,1,7.68-1.82,18.82,18.82,0,0,1,5.18.61,18.08,18.08,0,0,1,4.25,1.87L226,28.9,221.21,30Z"/><path id="path32" class="cls-1" d="M247.9,24.33A7.45,7.45,0,0,0,241.7,27q-2.12,2.67-2.11,7.82t2.11,7.86a8.5,8.5,0,0,0,12.43,0c1.42-1.8,2.14-4.42,2.14-7.86s-.71-6-2.12-7.82A7.49,7.49,0,0,0,247.9,24.33Zm-.05-4.76a15,15,0,0,1,7.44,1.8,12.51,12.51,0,0,1,5,5.2,17.47,17.47,0,0,1,1.8,8.26,17.6,17.6,0,0,1-1.8,8.29,12.52,12.52,0,0,1-5,5.23,14.85,14.85,0,0,1-7.42,1.8,14.67,14.67,0,0,1-7.36-1.8,12.48,12.48,0,0,1-5-5.23,17.6,17.6,0,0,1-1.8-8.29,17.72,17.72,0,0,1,1.78-8.26,12.34,12.34,0,0,1,5-5.2A14.7,14.7,0,0,1,247.85,19.57Z"/><path id="path34" class="cls-1" d="M285.29,35.37h24.07v4.76H285.29Z"/><path id="path36" class="cls-1" d="M346.7,24.33A7.45,7.45,0,0,0,340.5,27q-2.12,2.67-2.11,7.82t2.11,7.86a8.49,8.49,0,0,0,12.42,0q2.15-2.7,2.14-7.86T353,27a7.51,7.51,0,0,0-6.25-2.68Zm-.05-4.76a15,15,0,0,1,7.44,1.8,12.51,12.51,0,0,1,5,5.2,17.47,17.47,0,0,1,1.8,8.26,17.6,17.6,0,0,1-1.8,8.29,12.48,12.48,0,0,1-5,5.23,16.07,16.07,0,0,1-14.78,0,12.52,12.52,0,0,1-5-5.23,17.6,17.6,0,0,1-1.8-8.29,17.59,17.59,0,0,1,1.78-8.26,12.38,12.38,0,0,1,4.95-5.2A14.74,14.74,0,0,1,346.65,19.57Z"/><path id="path38" class="cls-1" d="M369,20.54h21.19L392.79,29l-4.67,1.46-1.6-5h-7.29V44.27h5v4.91H369V44.27h4.66V25.45H369Z"/><path id="path40" class="cls-1" d="M413.21,24.33A7.45,7.45,0,0,0,407,27q-2.11,2.67-2.11,7.82T407,42.69a8.5,8.5,0,0,0,12.43,0c1.42-1.8,2.14-4.42,2.14-7.86s-.71-6-2.12-7.82A7.49,7.49,0,0,0,413.21,24.33Zm0-4.76a15,15,0,0,1,7.44,1.8,12.51,12.51,0,0,1,5,5.2,17.47,17.47,0,0,1,1.8,8.26,17.6,17.6,0,0,1-1.8,8.29,12.52,12.52,0,0,1-5,5.23,14.85,14.85,0,0,1-7.42,1.8,14.67,14.67,0,0,1-7.36-1.8,12.48,12.48,0,0,1-5-5.23,17.6,17.6,0,0,1-1.8-8.29,17.59,17.59,0,0,1,1.78-8.26,12.34,12.34,0,0,1,5-5.2,14.7,14.7,0,0,1,7.36-1.8Z"/><path id="path42" class="cls-1" d="M435.14,20.54l12.54.05v4.86h-2.77l-.05,6.81h12.26l.05-6.81h-2.82V20.54h12.54v4.91h-4.08l-.05,18.82h4.13v4.91h-12.5V44.27h2.73V37.12H444.86v7.15h2.73v4.91h-12.5V44.27h4.13l0-18.82h-4.13Z"/><path id="path44" class="cls-1" d="M489.16,44.27a9.32,9.32,0,0,0,2-.2,4.66,4.66,0,0,0,1.58-.65,3.15,3.15,0,0,0,1.07-1.32,5.31,5.31,0,0,0,.39-2.21,4.41,4.41,0,0,0-.56-2.38A3.21,3.21,0,0,0,492,36.24a8,8,0,0,0-2.63-.38h-4.71v8.41ZM490,31a13.84,13.84,0,0,1,5.4,1,7.17,7.17,0,0,1,3.43,2.94A10,10,0,0,1,500,40a9.76,9.76,0,0,1-1.12,4.74A7.86,7.86,0,0,1,495.6,48a11.17,11.17,0,0,1-5.37,1.17H475V44.27H479V25.4h-4V20.54h12.4V25.4h-2.82V31Z"/></g></svg>