<svg id="Layer_1" data-name="Layer 1" xmlns="http://www.w3.org/2000/svg" viewBox="0 0 494.41 500"><defs><style>.cls-1{fill:#fff;fill-rule:evenodd;}</style></defs><path id="path2" class="cls-1" d="M247.2,437.5C145,437.5,61.83,353.45,61.83,250.14c0-65.51,33-125.17,88.2-159.59l2.18,3.57c-54,33.65-86.23,92-86.23,156,0,101,81.3,183.16,181.22,183.16s181.22-82.17,181.22-183.16c0-64.8-32.81-123.49-87.78-157l2.14-3.59c56.23,34.27,89.8,94.3,89.8,160.58,0,103.31-83.16,187.36-185.38,187.36Z"/><path id="path4" class="cls-1" d="M244.31,4.49q-9,.1-17.8.88l3.94,15.28-2.32.18c-6.58-7.41-14.83-12.66-24.46-12.41q-7.89,1.46-15.59,3.41V40.71c2.53-.67,3.8-1,6.35-1.58,9.22-2,19.22-6.53,22.08-16.47l2.22-.28V51.12l-1.78.23c-1.35-5.52-6.72-8.5-12-8.77-5.6-.28-11.38,1-16.87,2.36V60.08A58,58,0,0,0,189,72c.8,3.55,3,7.13,7.11,6.2v1.78a258.13,258.13,0,0,0-34.64,10.79V89c8.33-3.57,8.32-17.08,8.3-24.53V28c.05-2.8-.25-7.71-2.69-9.78C72.3,51.76,4.15,143.05,4.15,250.14c0,135.46,109,245.66,243.05,245.66S490.26,385.6,490.26,250.14c0-107.18-68.26-198.53-163.14-232a3.84,3.84,0,0,0-1.57,1.78q-.84,1.82-.84,7.34V65.16a80.15,80.15,0,0,0,.74,13c.69,4.4,2.88,9.28,7.23,11V91.4a257.57,257.57,0,0,0-35.25-10.94V78.3c4.3.83,7.12-2.71,7.67-6.74a76.24,76.24,0,0,0,.71-13.08q0-20.28.05-40.55l-.42-.11q-13.56,30.6-26.76,61.36L277.29,79q-12.5-33.63-25.5-67.06-.06,17.9-.1,35.8a60.07,60.07,0,0,0,2.13,14.76c1.31,4.63,4.32,9.46,9.09,11v1.92c-9-.54-17.91-.63-26.9-.28V73.42c4.89-2,7.71-7.07,9.19-11.84a59.07,59.07,0,0,0,2.57-15.48V18.27c0-4.39-.54-10.16-3.46-13.78Zm67.3,8.75-.53-.15-2.25,3.53V61.8c-.18,5.65-.64,11.14-3.11,16.31L303.26,80c3.78,1,6.19-2.67,7-5.81a44.52,44.52,0,0,0,1.41-11.6V26.91l-.09-13.67Zm-7.49-2A239.24,239.24,0,0,0,268.28,5.4q9.47,22.11,18.6,44.36Q295.43,30.48,304.12,11.29Zm-49-6.68c-1.51-.05-3-.07-4.54-.1l.57.63a17.25,17.25,0,0,1,3.34,5.18q12,31.91,23.6,64c.64-1.43,1-2.15,1.59-3.58q-12-33.13-24.56-66.1ZM239.83.39V.07c8.85-.2,17.64,0,26.47.69l.11.26c127.37,9.94,228,117.87,228,249.12C494.41,387.91,383.51,500,247.2,500S0,387.91,0,250.14C0,126.44,89.39,23.48,206.29,3.71Q215.74,2,225.38,1l.07.27C230.2.83,235,.53,239.83.39Zm-67.57,16-2.84.94c2.38,2.11,2.51,7.23,2.64,10V65.62a57.06,57.06,0,0,1-1,11.75A19.34,19.34,0,0,1,164.25,88c9.2-3.67,10.92-14.65,10.89-23.5V25.74c0-4-.58-6.77-1.73-8.27a4.22,4.22,0,0,0-1.15-1Z"/><path id="path6" class="cls-1" d="M105.11,141.07s5.12,15.51,5.57,18h0c.45,2.28,3,1.47,3,1.47h0s100.42-10,116.68-10.78h0c12-.49,14,6.21,16.41,7.35h0c3.77-.16,136.11-15.35,138.52-15.68h0c2.86-.49,7.37-1.63,5.57-2.44h0c-3.17-1.15-5.88-1.15-14.91-1.8h0c-9.79-1.8-254.44-2.12-265-2.12h0c-7.68,0-5.87,6-5.87,6Zm16.26,28.08c-2.26.33-6,1.14-4.82,2h0c2.11,1.14,4.22,1.31,11.14,2.29h0c7.08,2,203.86,12.41,229.9,13.88h0c9,1.47,10.39-5.72,10.39-5.72h0s7.08-17.14,8.28-20.08h0c.91-2.61-2.56-1.47-2.56-1.47h0s-106.29,7-121.35,7.18h0c-11.29-.16-9.78-7.34-11.59-8.65h0c-4.06.16-119.39,10.61-119.39,10.61Zm224,21.06c-8.73-.65-206.87,18.13-206.87,18.13h0c-6-.16-6.47,2.45-6.17,4.41h0c.3,2,4.22,10.28,5.42,12.41h0c1.66,2.44,2.26,2.61,4.37,2.28h0c2.41-.16,81.3-15.67,93.94-17.47h0c9.49-1.14,11,3.76,12.95,4.57h0c3.77-.49,106-21.55,106-21.55h0c2.56-.65,6.33-2,4.37-2.45h0a16.15,16.15,0,0,0-5-.49h0c-2.11,0-4.82.16-9,.16Zm-196.48,40c-1.65.16-4.52.81-3.76,1.79h0c1.5,1.15,3,1.31,8.13,2.45h0C158.56,236.91,333.2,257,333.2,257h0c7.08,1.8,8.13-5.55,8.13-5.55h0S346.75,234,347.51,231h0c.75-2.61-1.81-1.63-1.81-1.63h0s-86.12,3.92-97,3.59h0c-8.28-.49-10.39-7-11.74-8.32h0C232.33,224.67,148.92,230.22,148.92,230.22Zm98.16,21.71c-1.2,1-2.4,7.68-9.33,8h0c-9,.33-82.05-4.89-82.05-4.89h0s-3.32.81-2.41,2.93h0c.9,2.29,6.77,17.15,6.77,17.15h0s1.36,5.88,7.23,4.41h0S315.74,264,320.41,262.06h0c4.21-.82,5.57-1,6.92-2h0c.9-.66-1.5-1.31-2.86-1.47h0s-73.62-6.7-77.39-6.7ZM193.94,279.2c-3.62.16-4.82,0-6.17.65h0c-.76.49.9,1.47,2.1,1.8h0s54.2,16.82,56.31,17.14h0c1.06-.65,2.56-5.38,7.68-4.57h0c6.93,1.31,56.46,15,56.46,15h0s1.2.82,1.35-.81h0c.45-2,3.47-14.86,3.47-14.86h0s1.5-4.9-3-4.57h0S206.58,279.2,195,279.2h-1.05Zm-23,23.35c0,1.8,4.22,14.53,4.22,14.53h0s1.35,4.74,5.27,3.92h0s107.34-7,110.66-8.33h0c3.16-.65,4.21-.65,5-1.3h0c.6-.66-1.36-1.31-2.41-1.64h0s-64.74-5.22-66.55-5.22h0c-.75.65-.6,5.39-5.12,5.22h0c-6.17-.49-49.83-8-49.83-8h0a1.48,1.48,0,0,0-.6-.16h0C171.2,301.57,170.9,301.73,170.9,302.55Zm14.91,25c-3.16,0-4.22-.16-5.12.33h0c-.6.49,1.05,1.3,2.11,1.63h0s52.84,14.2,53.9,14.37h0c1.35-1,3.16-6,10.38-4.08h0c6.18,1.14,48.63,11.1,48.63,11.1h0s.76.65,1.51-.49h0c.75-1.31,2.86-13.88,2.86-13.88h0s.6-3.59-3.61-3.43h0s-96.66-5.71-109.46-5.71h0c-.6,0-1,0-1.2.16Zm56.61,18.12c-.6,1.31-1.36,10.94-7.08,10.62h0c-4.52.32-36.58-2.62-36.58-2.62h0s-.91-.32-1.06,1.15h0c0,1.79,5.87,14.2,5.87,14.2h0c.76,4.08,5.57,6.53,8.59,5.06h0s68.2-17.14,70-18.94h0a4.58,4.58,0,0,0,3-2.77h0c.15-.65-1.36-1.14-2.26-1.14h0s-39.75-5.56-40.5-5.56Zm32.52,28.9s-54.35,4.74-55.86,5.72h0a3.87,3.87,0,0,0-2.26,1.47h0c-.15.49.6,1.14,1.06,1.47h0s30,6.69,30.41,6.86h0c.6-1.15,5.72-5.88,9.94-4.58h0c3.31.82,19.57,3.11,20.32,3.11h0c1.21.32,1.81-.17,2.11-1.64h0c.45-1.63,1.2-5.71,1.2-5.71h0c0-3.59-3.46-6.7-6.17-6.7h-.75ZM235,391.7c-.75,1.79-2.56,6.2-2.56,6.2h0c-1.35,4.57-.15,9.47,1.81,9.31h0s34.32,6.86,35.53,6h0a2.05,2.05,0,0,0,1.81-1.31h0a1.89,1.89,0,0,0-.16-1.79h0s-15.65-14.53-15.8-14.7h0c-.91,1.15-5.42,5.39-7.53,2.94h0a132.81,132.81,0,0,0-11.29-8.16h0a.53.53,0,0,0-.45-.16h0c-.46,0-.76.49-1.36,1.63Z"/><path id="path10" class="cls-1" d="M46.32,342.12,65,333.3A6.86,6.86,0,0,0,68.62,330c.66-1.59.44-3.73-.63-6.5,1,3.45-1.3,6.34-4.36,7.57l-18.47,8.46a14.12,14.12,0,0,1-5.88,1.63c-2.42-.08-4.62-1.52-6.5-4.35C35.12,343,40.51,345,46.32,342.12ZM84,372.75l-1-1.44a40.2,40.2,0,0,0-5-24.13c-1.51-2.72-2.24-4.11-3.66-6.92l-13.63,7.35c1,1.91,1.45,2.85,2.45,4.72,2.92,5,7.62,13,14.58,11.78l.93,1.43L66.1,374.35l-.81-1.24c2.16-3.55.92-8-.47-11.6-1.7-4.39-4-8.61-6.11-12.83l-7.09,3.82a18.88,18.88,0,0,0-5.3,3.78,6.4,6.4,0,0,0-.66,7.8l-.82.48a289.89,289.89,0,0,1-13.85-30l.87-.35c2.18,6.08,8.73,5.14,13.43,2.93L63,329.25c2.93-1.16,5.17-3.86,4.44-7.18l.87-.36a226.06,226.06,0,0,0,22.12,41.51q-3.27,4.71-6.4,9.53Z"/><path id="path12" class="cls-1" d="M82,397.6,98,383.1a4.74,4.74,0,0,0,1.67-3.67,7.82,7.82,0,0,0-1.81-4.64,6.09,6.09,0,0,1,.8,4.07,6.21,6.21,0,0,1-2,2.66L80.53,395.85a24.56,24.56,0,0,1-5.16,3.86,5.58,5.58,0,0,1-6.94-1.4c1.81,2.43,4.74,4,7.76,3.13A16.73,16.73,0,0,0,82,397.6Zm2.69,20.73A262.79,262.79,0,0,1,65.23,396l.92-.75c2.09,2.73,4.55,3.55,7.3,2.53a22.2,22.2,0,0,0,5.49-3.89l16.24-14.14a6,6,0,0,0,2-2.63,7.13,7.13,0,0,0-.74-4.1l.73-.6c4.45,5.55,9.09,10.85,14,16l-.66.69c-2.23-1.51-4.31-1.33-6.29.64l-15.76,15.7a25.77,25.77,0,0,0-4.17,4.86c-1.28,2.52-.89,4.93,1.21,7.14l-.82.86Z"/><path id="path14" class="cls-1" d="M130.34,452c-.71-1.08-.93-3.23-.7-6.35a51.72,51.72,0,0,0,.19-8.89,19.75,19.75,0,0,0-4.16-10c2.07,3.71,2.32,7.68,2.4,11.83-.2,3.78-.76,7.55-1.19,11.3,1.38.85,2.07,1.27,3.46,2.09Zm11.41-27.31c1.23-2.06,1-4.55-.55-7.46a19.51,19.51,0,0,0-6-6.68l-.64-.46a17,17,0,0,1,5.53,6.43A7.07,7.07,0,0,1,134.19,427a11.34,11.34,0,0,1-7.83-2.28c.3.26,1.09.84,2.36,1.72s3.5,1.35,6.63,1.3,5.25-1.1,6.4-3Zm-3.86-2.11c3.63-5.7-2.53-11.29-6.69-14.35-1.27-1-1.9-1.45-3.15-2.44l-9.48,12.59c1.35,1.06,2,1.59,3.4,2.62,2.76,1.84,5.53,3.73,8.87,4.3s5.58-.42,7-2.72Zm-33.71-2.47,13-15.74a7.66,7.66,0,0,0,1.89-4.59,6.58,6.58,0,0,0-2.32-5.23A5.45,5.45,0,0,1,118,399.3a10.22,10.22,0,0,1-2.24,3.74l-13.2,15.61c-2.89,3.53-8.12,7.73-12.32,3.52,4.71,4.55,10.26,2.65,14-2.05Zm39.25,40.68c-6.57-3.37-13-7-19.22-10.87q.63-5.42,1.44-10.81c1-5.94.3-12.66-4.85-16.5-1.38-1-2.07-1.57-3.43-2.64l-5.19,6.88a22.41,22.41,0,0,0-3.47,5.76c-.93,2.82-.13,5.22,2.4,7.1l-.6.84A257.15,257.15,0,0,1,87.79,421.3l.64-.81c4.19,4.09,9.38,0,12.28-3.46l13.36-15.45c2.13-2.25,3.39-5.69,1.27-8.39l.66-.72a212,212,0,0,0,24.08,19.45,43.45,43.45,0,0,1,9.07,8c2.19,2.76,3.33,6.56,1.57,9.85-1.83,3.45-6,4.1-9.48,3.38-4.38-.92-8.23-3-12-5.4,2.7,2.55,5.73,5.1,7.59,8.28,1.64,2.8,2.05,6.34,2,9.61s-.06,6.64.94,9.58a11.36,11.36,0,0,0,4,4.88Z"/><path id="path16" class="cls-1" d="M164.9,457.63q3.73-9.45,7.45-18.91a9.33,9.33,0,0,0,.91-4.87c-.31-1.64-1.66-3-4-4.09a4.41,4.41,0,0,1,2.28,4,13.06,13.06,0,0,1-1.15,4.2q-3.81,9.42-7.64,18.83a19.67,19.67,0,0,1-3.09,5.75c-1.74,1.73-4.22,2.26-7.41,1.51C158.15,466.84,162.83,463.26,164.9,457.63Zm45.69,10.76c-2.75,4.26-5.63,8.44-8.58,12.56a248,248,0,0,1-52.18-17l.4-.87c2.93,1.36,5.42.93,7.37-1.2a22.59,22.59,0,0,0,3.21-5.95l7.81-18.75a11.41,11.41,0,0,0,1.08-4.2,4.91,4.91,0,0,0-2.29-4.05c.16-.35.24-.52.39-.87A211.37,211.37,0,0,0,207.16,441q.51,5.68,1.21,11.35l-1.6-.32c-4.6-6.14-9.83-11.14-17.29-13.44-2.71-.85-4.06-1.29-6.74-2.24l-5.13,14.89c1.75.62,2.63.92,4.38,1.49,5.37,1.48,13.06,3.31,17-2.11l1.33.32q-1.77,7.56-3.53,15.13l-1.22-.29c-.53-3.8-3.86-6.39-7.08-7.92a115.78,115.78,0,0,0-11.67-4.45q-1.49,4.29-3,8.6c-1,2.88-1.13,5.13-.33,6.59,1.39,2.57,4.68,3.88,7.38,4.65a30,30,0,0,0,15.63.22,46.07,46.07,0,0,0,12.75-5.63l1.25.56Z"/><path id="path18" class="cls-1" d="M296.64,468.87q-2.07-9.44-4.13-18.87s-.58-2.56-1.75-7.71c-.5,1.25-.75,1.88-1.27,3.12q2.5,12,5,23.93c.41,3.24.8,6.46-.54,9.58-.66.7-1,1.05-1.66,1.74,2.55-.49,4.13-2.26,4.65-5.2a17,17,0,0,0-.3-6.59Zm-23.11,12.06A293.71,293.71,0,0,1,252.81,446c-2,0-3,.06-4.93.06a8,8,0,0,1,3.13,2,9.64,9.64,0,0,1,2.27,2.71,301.76,301.76,0,0,0,19.24,32.34l1-2.18Zm42.23-5a266.64,266.64,0,0,1-27.88,6.55l-.2-1.16a5.81,5.81,0,0,0,5.13-5.67,31,31,0,0,0-.85-7.15l-4.23-21.54-.29.06a290.93,290.93,0,0,1-14.16,38.64l-1.1.12a292.56,292.56,0,0,1-20.66-34.05q.14,9.69.25,19.38a19,19,0,0,0,1.76,7.92,9.3,9.3,0,0,0,7.22,5.45l.05,1c-7,.33-14,.39-21.05.2,0-.37,0-.56,0-.93,3.31-.61,5.78-3.21,7.2-6.13a19.4,19.4,0,0,0,1.91-8.37l-.06-15.06c.2-3.81-1.38-8-5.21-9.2,0-.3,0-.45,0-.75,5.75.07,11.46-.05,17.2-.37a276.94,276.94,0,0,0,16.71,23.51c3.43-8.81,6.44-17.71,9-26.81,5.61-1.2,11.14-2.58,16.66-4.17l.3.81c-1.79,1-2.83,2.08-3.1,3.39a10.39,10.39,0,0,0,.51,4.15q2.63,9.9,5.26,19.82a27.69,27.69,0,0,0,2.35,6.53,5.55,5.55,0,0,0,6.88,2.68Z"/><path id="path20" class="cls-1" d="M328.51,458.67l-7.21-19a9.37,9.37,0,0,0-2.6-4.2c-1.33-1-3.22-1.07-5.65-.29a4.31,4.31,0,0,1,4.33,1.37,12.83,12.83,0,0,1,2,3.86l7,19.08a19.82,19.82,0,0,1,1.58,6.35c-.11,2.46-1.57,4.55-4.41,6.18C329.75,470.06,330.76,464.22,328.51,458.67Zm41.18-23.81c.81,5.05,1.48,10.12,2.05,15.2a244.48,244.48,0,0,1-50,23.59l-.3-.92c3.05-1,4.59-3,4.59-5.93a23,23,0,0,0-1.64-6.56l-6.84-19.14a11.37,11.37,0,0,0-2-3.83,4.79,4.79,0,0,0-4.38-1.41c-.12-.36-.18-.54-.31-.91a208.1,208.1,0,0,0,37.8-17.68q4.23,3.78,8.57,7.43l-1.41.89c-7.59-1.26-14.87-1.27-21.94,2.19-2.58,1.25-3.88,1.86-6.49,3l6.22,14.46c1.7-.75,2.55-1.14,4.24-1.93,5-2.62,11.91-6.59,11.24-13.36l1.21-.69,7.57,13.54-1.11.63c-3-2.42-7.2-2-10.6-.88a116.64,116.64,0,0,0-11.64,4.79q1.78,4.17,3.59,8.35c1.21,2.8,2.62,4.54,4.19,5.07,2.77.92,6.09-.39,8.59-1.69a32.19,32.19,0,0,0,11.78-10.7,44.4,44.4,0,0,0,5.75-13.05l1.31-.47Z"/><path id="path22" class="cls-1" d="M416.82,406.52c-.88-.83-3-1.42-6.23-1.88a240.94,240.94,0,0,1-26.15-5.48c.14.78.2,1.17.34,1.95,8,2.16,16,3.9,24.21,5.26,3.23.53,5.33,1.17,6.24,2.06a2.29,2.29,0,0,1,.64,2.46,19.42,19.42,0,0,1-1.68,3.15,19.39,19.39,0,0,0,3.2-4A2.74,2.74,0,0,0,416.82,406.52Zm-19,0q-6.37-1.62-12.67-3.53c.7,4.51,1.3,9,1.81,13.54C390.65,413.34,394.29,410,397.78,406.54Zm35.27-13.45a264.71,264.71,0,0,1-20,23.49l-.66-.69a12.39,12.39,0,0,0,1.9-3.33,2.57,2.57,0,0,0-.89-2.51c-.9-.9-3.13-1.65-6.43-2.12-2.21-.32-4.51-.6-6.75-1q-6.32,6.22-13,12c.2,2,.34,4.1.54,6.08.28,2.62.91,4.81,1.77,5.69,1.93,2,5.64.54,8-.91l.6.74c-5.55,4.68-11.25,9.11-17.16,13.33l-.48-.71c4.05-4,4.34-10,4.39-15.38a271.74,271.74,0,0,0-3.55-34.39c-.32-1.7-.36-2.67-.1-2.92s.82-.32,1.6-.13l1.54.47a221.5,221.5,0,0,0,36.26,4.72,27,27,0,0,0,5.59-.26,11.94,11.94,0,0,0,5.86-2.95l.93.74Z"/><path id="path24" class="cls-1" d="M437.82,364.68l-18.37-11.43a3.14,3.14,0,0,0-3.45.17,10,10,0,0,0-3.11,3.19c1.44-2.31,3.23-2.81,5.42-1.41l18.25,11.63a14.39,14.39,0,0,1,4.81,4.76,7.71,7.71,0,0,1-.33,8.28C444.8,374.24,443.67,368.17,437.82,364.68Zm1-40.75c-.3.8-.46,1.2-.77,2A55.42,55.42,0,0,0,430,331c-2.66,2-5.42,4.36-6.94,7.37-1.32,2.63-.87,4.6,1.4,5.85l18.9,10.46a19.5,19.5,0,0,0,6.12,2.51c3.05.44,5.57-1.53,6.77-4.25v-.25l.85.43a277.83,277.83,0,0,1-16.6,29.37l-.77-.55.18-.08c3.54-5.13-.12-10.07-4.6-12.88l-18.13-11.84c-2.17-1.42-4-.88-5.54,1.52-1.75,2.78-2.34,6.27-2.6,9.51a51.58,51.58,0,0,0,.09,9.38c-.38.5-.57.75-1,1.24q-3.06-5.21-6.3-10.3a222,222,0,0,0,25-44.53Q432.84,324.09,438.85,323.93Z"/></svg>